# xmcd CD database file
#
# Track frame offsets:
#	150
#	14230
#	35772
#	53392
#	70981
#	86090
#	103820
#	124583
#	143436
#
# Disc length: 2120 seconds
#
# Revision: 1
# Processed by: cddbd v1.5.2PL0 Copyright (c) Steve Scherf et al.
# Submitted via: CDex 1.51
#
DISCID=79084609
DTITLE=Twist Of Fate - The Chicken Shack Recordings Vol.1
DYEAR=2009
DGENRE=Blues
TTITLE0=Jack and John
TTITLE1=Congo Square
TTITLE2=Love Song
TTITLE3=Shine A Light On Me
TTITLE4=Money
TTITLE5=Woke Up
TTITLE6=The King
TTITLE7=G.M. Blues
TTITLE8=I'm Tryin'
EXTD=YEAR: 2009
EXTT0=
EXTT1=
EXTT2=
EXTT3=
EXTT4=
EXTT5=
EXTT6=
EXTT7=
EXTT8=
PLAYORDER=
